<svg width="100" height="81" viewBox="0 0 100 81" fill="none" xmlns="http://www.w3.org/2000/svg">
<path d="M46.6556 33.5242C46.6556 41.8843 46.7336 50.2457 46.602 58.6044C46.5675 60.7303 45.9733 62.8722 45.4443 64.9542C44.9153 67.0362 43.962 68.9907 42.7481 70.7725C40.8498 73.5901 38.3373 75.9007 35.416 77.5156C33.0533 78.8257 30.5398 79.6016 27.9152 80.1238C25.4126 80.6428 22.8514 80.7864 20.3096 80.5503C17.0384 80.2194 13.8311 79.4873 10.7656 78.1347C8.18569 76.9974 5.82429 75.4973 3.49739 73.9122C3.03737 73.5986 2.85848 73.2811 3.18432 72.7164C4.04812 71.2468 4.87615 69.7561 5.70929 68.2679C5.97507 67.7923 6.22041 67.7524 6.65359 68.1231C9.37262 70.4719 12.5384 72.1966 15.9433 73.1841C18.9091 74.0517 21.9235 74.1062 24.9161 73.871C28.8275 73.5627 32.339 72.0294 35.163 69.101C37.1653 67.0243 38.3703 64.4772 39.0526 61.6245C39.8104 58.4583 39.4705 55.2468 39.5638 52.058C39.5791 51.5265 39.597 50.995 39.5753 50.4636C39.5663 50.2483 39.4564 50.0371 39.3925 49.8245C39.2251 49.9347 39.0703 50.0644 38.9312 50.2111C38.1645 51.2355 37.449 52.3091 36.6388 53.2963C34.9943 55.2973 32.9204 56.6951 30.6331 57.7806C27.4015 59.3126 23.9885 59.6594 20.4923 59.5239C16.5853 59.3974 12.7926 58.1232 9.55296 55.8487C6.86954 53.9766 4.78031 51.5172 3.15621 48.5928C1.74631 46.063 0.801262 43.2826 0.369291 40.3935C0.0319473 38.1347 0 35.8175 0 33.5255C0 31.288 0.442126 29.0758 1.10787 26.9578C2.01767 24.0693 3.3351 21.388 5.24288 19.0269C7.90458 15.7318 11.1988 13.4823 15.1562 12.3038C16.4506 11.9185 17.8 11.7125 19.1366 11.5066C20.0962 11.3391 21.068 11.2586 22.0411 11.2661C25.8566 11.3618 29.4971 12.2081 32.7747 14.3221C34.5879 15.4886 36.2517 16.8559 37.4924 18.7067C37.9891 19.4464 38.4947 20.1802 39.0092 20.9083C39.1268 21.0407 39.2584 21.1588 39.4015 21.2604C39.4628 21.089 39.5778 20.9176 39.5778 20.7462C39.5778 18.2696 39.5625 15.7929 39.5574 13.3162C39.551 9.90951 39.5574 6.50408 39.5471 3.09734C39.5471 2.55657 39.6992 2.16726 40.2436 1.9839C41.9149 1.41921 43.5518 0.713687 45.2539 0.279208C46.9559 -0.155272 48.6848 -0.0516373 50.4124 0.376199C54.4542 1.3767 57.4762 3.84937 59.7699 7.33052C60.4803 8.40809 60.9467 9.67167 61.44 10.8874C62.2488 12.8804 62.9938 14.8934 63.7541 16.9037C64.5617 19.0389 65.3463 21.1821 66.1551 23.3146C66.909 25.3076 67.6808 27.2794 68.4437 29.2618C69.5068 32.0281 70.5636 34.7957 71.6382 37.5581C72.6784 40.2394 73.7466 42.91 74.7753 45.5966C75.5982 47.7477 76.3725 49.9188 77.1929 52.0726C77.2721 52.2799 77.5149 52.4194 77.6823 52.5908C77.8101 52.4141 77.9966 52.2573 78.0656 52.0593C79.0794 49.3417 80.0829 46.6206 81.0762 43.8959C81.9119 41.6079 82.7284 39.3119 83.5628 37.0226C84.3448 34.8808 85.1422 32.7456 85.9293 30.6064C86.6577 28.6302 87.3852 26.654 88.1118 24.6778C89.445 21.0709 90.7769 17.4631 92.1076 13.8544C92.3056 13.3229 92.505 12.7821 92.6749 12.236C92.827 11.7444 93.1171 11.5305 93.6192 11.5345C95.5539 11.5478 97.4897 11.5345 99.4256 11.5411C99.993 11.5411 100.104 11.7152 99.915 12.1988C99.2122 13.9965 98.5094 15.7942 97.8169 17.5959C96.8662 20.0753 95.9346 22.5626 94.9827 25.0366C93.7636 28.2095 92.5293 31.3757 91.3089 34.5486C90.003 37.9474 88.715 41.3528 87.4052 44.7489C85.9523 48.5144 84.4726 52.2693 83.0249 56.0361C81.8135 59.1877 80.6494 62.3606 79.4304 65.5083C78.3276 68.3516 77.3335 71.2468 75.6276 73.7966C73.5614 76.8871 70.9405 79.191 67.3857 80.1929C65.1341 80.828 62.8622 80.8306 60.5762 80.3895C58.2499 79.9359 56.0602 78.915 54.1871 77.4106C53.7641 77.0771 53.6836 76.822 53.9405 76.3198C54.7366 74.7612 55.4841 73.1748 56.2405 71.5923C56.5549 70.928 56.6763 70.92 57.2628 71.3119C58.8205 72.3536 60.5008 73.0592 62.3741 73.1415C63.9994 73.212 65.6057 73.1641 67.0943 72.3443C68.6111 71.5033 69.9055 70.3779 70.7131 68.8087C71.821 66.6549 72.8228 64.44 73.7939 62.2158C73.9772 61.722 73.9799 61.1755 73.8016 60.6798C72.5659 57.4631 71.26 54.2729 69.9847 51.0721C68.7921 48.0773 67.6033 45.0802 66.4184 42.0809C65.2641 39.1578 64.1115 36.2378 62.9606 33.3209C61.6913 30.1179 60.4177 26.9166 59.1399 23.7172C58.1918 21.3601 57.2104 19.0176 56.2572 16.6619C55.7064 15.3013 55.1633 13.9381 54.6548 12.5616C54.0606 10.9539 52.8658 9.90419 51.588 8.93691C50.337 7.9869 48.8522 7.68263 47.361 7.43283C46.8051 7.3385 46.662 7.672 46.6633 8.17822C46.6701 11.7621 46.6723 15.3451 46.6697 18.9273V33.5242H46.6556ZM39.4999 35.6501C39.5216 32.4347 38.9261 29.3601 37.4809 26.5048C35.2473 22.0949 31.7537 19.375 27.0897 18.2603C25.141 17.7939 23.177 17.766 21.1939 17.9374C18.163 18.1734 15.2698 19.349 12.8881 21.3123C9.32934 24.2261 7.45734 28.1723 6.86826 32.7642C6.39036 36.4845 6.77626 40.1317 8.29047 43.593C9.97336 47.4461 12.6555 50.2364 16.4123 51.8866C19.4062 53.1993 22.5292 53.5076 25.7276 53.0452C29.5776 52.4885 32.8591 50.7692 35.416 47.6959C38.2808 44.2467 39.4692 40.1503 39.496 35.6461L39.4999 35.6501Z" fill="#FA4747"/>
</svg>
